<svg id="e8qPMhw7QR41" xmlns="http://www.w3.org/2000/svg" xmlns:xlink="http://www.w3.org/1999/xlink" viewBox="0 0 2438 1473" shape-rendering="geometricPrecision" text-rendering="geometricPrecision"><path id="e8qPMhw7QR42" d="M2436.99,204.131c-81.83,81.235-168.86,157.773-265.65,219.785-31.39,20.106-63.99,38.762-99.19,50.743-71.79,24.434-149.77,19.795-224.81,30.559-95.3,13.667-186.56,53.342-262.52,112.997-57.16,44.89-119.53,106.38-188.76,131.257-62.88,22.6-143.36-25.841-204.97-39.414-63.11-13.899-129.82-7.468-189.74,15.973-31.395,12.281-61.044,29.247-87.398,50.471-25.201,20.3-44.47,53.206-81.527,36.548-12.248-5.506-21.829-15.63-32.881-23.338-38.406-26.784-95.982-19.255-126.111,16.496M2433.24,206.888c-79.56,81.73-165.48,158.714-261.73,220.464-32.04,20.586-65.44,38.992-101.17,51.735-43.12,15.316-88.5,20.461-134.24,24.459-31.23,2.732-62.61,4.926-93.56,9.448-61.13,8.939-120.79,27.423-176.11,53.948-32.34,15.511-63.19,33.778-91.99,54.575-20.25,14.557-41.07,30.957-62.55,47.136-30.2,22.707-61.71,44.962-94.79,61.49-11.87,5.948-23.95,11.157-36.21,15.344-50.73,17.275-112-7.203-166.13-23.616-14.51-4.432-28.51-8.285-41.67-10.597-54.12-9.673-110.37-4.575-162.6,13.003-8.99,3.024-17.863,6.419-26.596,10.177-31.142,13.393-60.588,31.351-87.1,53.179-15.7,12.93-29.288,30.45-46.263,38.222-10.452,4.787-22.146,5.816-36.396-.078-12.449-5.15-22.379-14.75-33.724-22.076-39.386-25.48-97.461-18.098-128.673,17.452M2429.48,209.64c-77.28,82.23-162.09,159.654-257.79,221.144-32.71,21.071-66.91,39.226-103.16,52.722-43.57,16.108-89.49,22.148-135.84,26.821-31.65,3.194-63.51,5.749-94.96,10.436-62.12,9.246-122.92,27.237-179.46,52.468-33.06,14.75-64.64,31.995-94.22,51.58-20.85,13.692-42.24,29.107-64.25,44.272-31,21.27-63.25,42.034-97.13,57.721-12.13,5.65-24.46,10.639-36.98,14.697-51.88,16.737-113.93-5.901-168.6-20.127-14.64-3.864-28.75-7.093-42.01-8.878-54.42-7.322-110.46-.229-162.269,19.248-8.916,3.346-17.716,7.068-26.38,11.134-30.895,14.505-60.139,33.456-86.803,55.891-15.797,13.296-29.646,30.938-46.914,38.998-10.643,4.966-22.503,6.18-36.877.742-12.66-4.792-22.927-13.866-34.568-20.814-40.361-24.175-98.944-16.94-131.23,18.403M2425.73,212.391c-75.01,82.727-158.71,160.601-253.86,221.823-33.37,21.552-68.38,39.457-105.14,53.714-44.02,16.904-90.47,23.836-137.44,29.183-32.08,3.661-64.4,6.576-96.36,11.419-63.11,9.557-125.05,27.051-182.81,50.983-33.77,13.994-66.04,30.298-96.46,48.587-21.41,12.881-43.41,27.252-65.95,41.406-31.79,19.835-64.78,39.107-99.45,53.947-12.39,5.351-24.98,10.123-37.75,14.053-53.03,16.201-115.89-4.45-171.09-16.64-14.75-3.262-28.97-5.926-42.34-7.164-54.69-5.065-110.54,4.117-161.93,25.497-8.845,3.673-17.571,7.712-26.162,12.09-30.642,15.617-59.683,35.56-86.5,58.602-15.895,13.663-30.001,31.426-47.566,39.774-10.832,5.151-22.859,6.554-37.362,1.559-12.87-4.43-23.477-12.985-35.413-19.557-41.341-22.87-100.423-15.787-133.792,19.36M2421.97,215.148c-72.73,83.222-155.32,161.542-249.92,222.507-34.04,22.037-69.81,39.761-107.13,54.701-44.43,17.784-91.44,25.522-139.03,31.549-32.5,4.122-65.29,7.404-97.75,12.406-64.11,9.869-127.18,26.869-186.17,49.503-34.49,13.233-67.49,28.544-98.69,45.593-22.01,12.034-44.58,25.397-67.65,38.546-32.58,18.398-66.33,36.18-101.79,50.174-12.65,5.052-25.5,9.605-38.51,13.404-54.18,15.663-117.83-3.103-173.57-13.154-14.88-2.684-29.2-4.76-42.67-5.45-54.96-2.81-110.62,8.462-161.609,31.742-8.774,3.995-17.424,8.356-25.942,13.047-30.391,16.728-59.233,37.665-86.203,61.309-15.993,14.029-30.357,31.909-48.217,40.549-11.023,5.336-23.22,6.93-37.844,2.38-13.084-4.067-24.026-12.101-36.256-18.294-42.321-21.565-101.907-14.63-136.35,20.31M2418.22,217.899c-70.46,83.722-151.93,162.487-245.99,223.187-34.71,22.518-71.27,40.009-109.11,55.688-44.88,18.593-92.43,27.209-140.63,33.91-32.93,4.59-66.19,8.232-99.16,13.39-65.09,10.18-129.3,26.682-189.51,48.022-35.21,12.478-68.94,26.784-100.92,42.599-22.61,11.181-45.72,23.603-69.36,35.681-33.34,17.045-67.89,33.163-104.12,46.401-12.92,4.722-26.01,9.087-39.27,12.756-55.34,15.126-119.77-1.762-176.06-9.664-15-2.106-29.42-3.592-43-3.735-55.24-.569-110.71,12.807-161.284,37.991-8.699,4.322-17.274,9-25.727,14.005-30.139,17.844-58.783,39.774-85.906,64.022-16.09,14.395-30.715,32.396-48.868,41.324-11.213,5.52-23.58,7.304-38.325,3.2-13.298-3.703-24.574-11.216-37.1-17.032-43.296-20.261-103.385-13.473-138.911,21.267M2414.47,220.656c-68.19,84.217-148.55,163.428-242.06,223.866-35.37,23.002-72.73,40.252-111.1,56.679-45.31,19.402-93.41,28.893-142.22,36.273-33.36,5.052-67.08,9.059-100.56,14.376-66.08,10.492-131.43,26.501-192.86,46.538-35.92,11.716-70.39,25.026-103.15,39.605-23.21,10.329-46.89,21.757-71.06,32.815-34.13,15.624-69.44,30.223-106.45,42.628-13.18,4.419-26.53,8.574-40.04,12.108-56.49,14.588-121.69-.423-178.55-6.178-15.11-1.529-29.63-2.431-43.33-2.016-55.5,1.671-110.79,17.152-160.955,44.236-8.627,4.644-17.127,9.643-25.507,14.956-29.887,18.956-58.328,41.879-85.609,66.735-16.188,14.761-31.07,32.883-49.519,42.099-11.398,5.703-23.949,7.685-38.811,4.022-13.515-3.335-25.123-10.336-37.939-15.776-44.276-18.955-104.869-12.319-141.468,22.223M2410.71,223.408c-65.91,84.712-145.15,164.368-238.13,224.546-36.03,23.483-74.19,40.49-113.08,57.666-45.76,20.207-94.4,30.58-143.82,38.634-33.78,5.519-67.97,9.887-101.96,15.36-67.07,10.803-133.55,26.314-196.21,45.057-36.63,10.96-71.84,23.267-105.38,36.612-23.81,9.478-48.07,19.911-72.76,29.955-34.93,14.197-70.98,27.281-108.79,38.854-13.44,4.115-27.04,8.056-40.81,11.46-57.64,14.052-123.61.912-181.02-2.693-15.23-.957-29.86-1.269-43.67-.301-55.75,3.901-110.874,21.498-160.625,50.485-8.556,4.967-16.98,10.293-25.287,15.914-29.636,20.067-57.879,43.983-85.312,69.441-16.286,15.128-31.429,33.371-50.171,42.875-11.589,5.883-24.316,8.071-39.292,4.838-13.738-2.965-25.672-9.452-38.783-14.513-45.252-17.657-106.348-11.163-144.031,23.174M2406.96,226.159c-63.64,85.212-141.77,165.314-234.19,225.229-36.7,23.969-75.65,40.73-115.07,58.659-46.2,21.006-95.38,32.267-145.41,41-34.21,5.98-68.87,10.714-103.36,16.348-68.07,11.114-135.69,26.128-199.57,43.577-37.35,10.199-73.29,21.5-107.61,33.617-24.42,8.622-49.24,18.065-74.47,27.09-35.71,12.775-72.51,24.344-111.11,35.081-13.7,3.812-27.56,7.538-41.57,10.811-58.8,13.514-125.54,2.242-183.52.794-15.34-.385-30.07-.109-43.99,1.412-56.019,6.122-110.958,25.843-160.294,56.734-8.481,5.293-16.83,10.936-25.073,16.871-29.384,21.178-57.428,46.088-85.014,72.153-16.384,15.495-31.785,33.854-50.823,43.65-11.778,6.068-24.687,8.462-39.773,5.659-13.959-2.591-26.221-8.571-39.626-13.251-46.232-16.351-107.831-10.004-146.588,24.13M2403.2,228.916c-61.36,85.707-138.38,166.254-230.26,225.909-37.36,24.449-77.11,40.968-117.06,59.646-46.64,21.806-96.36,33.955-147,43.362-34.64,6.448-69.77,11.537-104.76,17.33-69.06,11.426-137.82,25.947-202.92,42.092-38.06,9.443-74.74,19.737-109.84,30.628-25.02,7.767-50.41,16.22-76.17,24.225-36.51,11.349-74.05,21.407-113.45,31.308-13.96,3.508-28.07,7.021-42.34,10.164-59.95,12.977-127.46,3.567-186,4.284-15.45.187-30.29,1.049-44.32,3.126-56.274,8.337-111.041,30.189-159.969,62.98-8.409,5.615-16.684,11.58-24.852,17.827-29.133,22.29-56.974,48.197-84.718,74.866-16.476,15.86-32.143,34.341-51.473,44.425-11.969,6.252-25.059,8.853-40.259,6.481-14.185-2.217-26.77-7.687-40.471-11.994-47.206-15.047-109.314-8.851-149.149,25.082M2399.45,231.668c-59.08,86.202-134.99,167.199-226.32,226.588-38.03,24.934-78.57,41.206-119.05,60.638-47.09,22.606-97.34,35.641-148.61,45.724-35.06,6.91-70.65,12.365-106.16,18.318-70.04,11.738-139.94,25.761-206.27,40.612-38.78,8.683-76.2,17.965-112.06,27.634-25.63,6.906-51.59,14.375-77.88,21.365-37.31,9.919-75.58,18.47-115.78,27.538-14.21,3.205-28.59,6.504-43.1,9.516-61.1,12.439-129.38,4.886-188.49,7.769-15.57.76-30.51,2.206-44.65,4.842-56.53,10.542-111.124,34.534-159.642,69.229-8.338,5.942-16.538,12.224-24.633,18.784-28.881,23.401-56.523,50.302-84.416,77.572-16.574,16.226-32.497,34.828-52.125,45.201-12.158,6.437-25.429,9.248-40.739,7.301-14.411-1.837-27.328-6.777-41.315-10.732-48.214-13.638-110.793-7.694-151.711,26.039M2395.7,234.42c-56.82,86.703-131.61,168.14-222.4,227.267-38.69,25.415-80.03,41.441-121.03,61.625-47.53,23.402-98.31,37.329-150.2,48.086-35.49,7.377-71.55,13.192-107.56,19.301-71.03,12.049-142.07,25.574-209.62,39.132-39.49,7.926-77.66,16.194-114.29,24.639-26.24,6.046-52.76,12.525-79.58,18.499-38.11,8.488-77.12,15.538-118.11,23.766-14.48,2.906-29.11,5.986-43.87,8.868-62.26,11.902-131.31,6.202-190.98,11.255-15.68,1.327-30.73,3.358-44.988,6.56-56.782,12.74-111.206,38.881-159.31,75.475-8.263,6.264-16.387,12.872-24.413,19.74-28.63,24.513-56.074,52.408-84.119,80.285-16.672,16.592-32.857,35.312-52.776,45.976-12.344,6.62-25.804,9.649-41.222,8.117-14.639-1.452-27.876-5.892-42.158-9.474-49.19-12.334-112.276-6.536-154.269,26.994M2391.94,237.177c-54.54,87.198-128.22,169.085-218.46,227.951-39.36,25.9-81.49,41.675-123.02,62.616-47.97,24.198-99.3,39.012-151.79,50.449-35.92,7.838-72.45,14.019-108.96,20.288-72.03,12.36-144.2,25.392-212.97,37.651-40.22,7.166-79.12,14.423-116.53,21.646-26.84,5.186-53.94,10.676-81.28,15.635-38.91,7.058-78.67,12.606-120.45,19.992-14.73,2.603-29.62,5.468-44.63,8.223-63.41,11.366-133.22,7.513-193.45,14.746-15.8,1.894-30.954,4.509-45.322,8.274-57.041,14.931-111.289,43.225-158.983,81.724-8.191,6.591-16.24,13.516-24.198,20.698-28.377,25.629-55.619,54.511-83.821,82.996-16.77,16.959-33.212,35.799-53.428,46.751-12.535,6.801-26.182,10.052-41.707,8.94-14.862-1.064-28.425-5.008-43.002-8.212-50.164-11.026-113.755-5.384-156.83,27.946M2388.19,239.928c-52.27,87.693-124.95,169.844-214.53,228.63-40.07,26.3-82.96,41.905-125,63.604-48.43,24.989-100.28,40.699-153.39,52.814-36.35,8.305-73.34,14.847-110.36,21.272-73.02,12.671-146.32,25.205-216.32,36.166-40.93,6.409-80.58,12.642-118.76,18.652-27.45,4.321-55.11,8.821-82.98,12.773-39.71,5.628-80.2,9.673-122.78,16.219-14.99,2.304-30.14,4.952-45.4,7.576-64.57,10.829-135.15,8.819-195.94,18.231-15.914,2.462-31.17,5.662-45.652,9.989-57.299,17.118-111.37,47.571-158.65,87.968-8.121,6.914-16.095,14.16-23.979,21.655-28.125,26.741-55.169,56.616-83.524,85.704-16.867,17.325-33.571,36.287-54.079,47.526-12.725,6.985-26.556,10.457-42.188,9.76-15.091-.674-28.974-4.123-43.841-6.95-51.139-9.717-115.239-4.226-159.388,28.903M2384.43,242.68c-49.99,88.193-121.56,170.785-210.59,229.311-40.74,26.78-84.42,42.134-126.99,64.59-48.88,25.781-101.26,42.387-154.99,55.176-36.77,8.768-74.23,15.675-111.76,22.26-74.01,12.978-148.45,25.024-219.68,34.686-41.64,5.649-82.04,10.862-120.98,15.658-28.06,3.452-56.28,6.971-84.69,9.908-40.5,4.194-81.73,6.745-125.11,12.446-15.25,2.006-30.65,4.438-46.16,6.928-65.72,10.291-137.07,10.124-198.429,21.717-16.032,3.03-31.389,6.813-45.985,11.703-57.563,19.298-111.453,51.916-158.322,94.218-8.046,7.235-15.945,14.803-23.76,22.612-27.873,27.851-54.718,58.725-83.227,88.416-16.965,17.686-33.926,36.769-54.73,48.301-12.914,7.17-26.933,10.868-42.669,10.581-15.322-.28-29.518-3.244-44.685-5.693-52.114-8.413-116.717-3.069-161.95,29.852M2380.68,245.436c-47.72,88.689-118.17,171.73-206.66,229.989-41.4,27.261-85.89,42.365-128.97,65.582-49.33,26.572-102.25,44.075-156.59,57.538-37.2,9.235-75.12,16.502-113.16,23.242-74.99,13.29-150.57,24.838-223.02,33.207-42.36,4.892-83.5,9.081-123.22,12.663-28.66,2.587-57.45,5.117-86.39,7.044-41.3,2.754-83.27,3.817-127.44,8.672-15.51,1.706-31.17,3.921-46.93,6.279-66.87,9.754-138.99,11.421-200.91,25.203-16.146,3.593-31.608,7.961-46.316,13.423-57.825,21.471-111.54,56.261-157.995,100.467-7.974,7.562-15.798,15.452-23.54,23.568-27.622,28.963-54.263,60.83-82.929,91.128-17.063,18.053-34.281,37.257-55.382,49.077-13.104,7.354-27.309,11.282-43.154,11.402-15.549.11-30.067-2.36-45.529-4.431-53.089-7.108-118.201-1.915-164.507,30.811M2376.93,248.188c-45.45,89.184-114.67,172.853-202.74,230.669-42.01,27.832-87.35,42.595-130.96,66.57-49.77,27.363-103.22,45.761-158.17,59.9-37.63,9.695-76.02,17.324-114.57,24.229-75.98,13.601-152.7,24.652-226.37,31.721-43.07,4.133-84.96,7.296-125.45,9.67-29.27,1.714-58.63,3.263-88.09,4.183-42.1,1.319-84.8.89-129.78,4.899-15.76,1.408-31.68,3.404-47.69,5.632-68.03,9.216-140.91,12.717-203.399,28.693-16.259,4.16-31.832,9.109-46.644,15.136-58.091,23.641-111.622,60.608-157.668,106.713-7.899,7.884-15.652,16.096-23.324,24.526-27.371,30.074-53.814,62.934-82.633,93.835-17.161,18.42-34.64,37.744-56.028,49.856-13.291,7.53-27.686,11.69-43.637,12.21-15.776.52-30.612-1.5-46.373-3.16-54.055-5.92-119.679-.76-167.069,31.76M2373.17,250.941c-43.17,89.684-111.28,173.798-198.8,231.353-42.68,28.311-88.81,42.824-132.94,67.561-50.22,28.15-104.21,47.443-159.77,62.266-38.05,10.162-76.92,18.152-115.97,25.212-76.97,13.913-154.83,24.47-229.73,30.242-43.78,3.376-86.41,5.51-127.67,6.676-29.88.844-59.81,1.402-89.8,1.318-42.9-.121-86.34-2.038-132.11,1.125-16.02,1.108-32.2,2.885-48.45,4.983-69.19,8.68-142.842,14.006-205.883,32.179-16.378,4.723-32.053,10.251-46.978,16.85-58.362,25.808-111.703,64.953-157.339,112.962-7.828,8.212-15.501,16.74-23.106,25.478-27.119,31.186-53.359,65.039-82.335,96.548-17.259,18.786-34.995,38.226-56.68,50.626-13.481,7.72-28.061,12.12-44.117,13.04-16.001.92-31.162-.63-47.217-1.91-55.031-4.61-121.163.4-169.631,32.72M2369.42,253.697c-40.89,90.179-107.89,174.739-194.86,232.032-43.35,28.797-90.28,43.05-134.93,68.548-50.68,28.937-105.19,49.131-161.37,64.627-38.48,10.626-77.81,18.98-117.36,26.2-77.97,14.225-156.96,24.284-233.08,28.761-44.5,2.616-87.87,3.72-129.9,3.682-30.49-.03-60.98-.452-91.5-1.548-43.7-1.564-87.88-4.961-134.44-2.643-16.29.81-32.72,2.368-49.23,4.335-70.34,8.143-144.764,15.294-208.363,35.665-16.493,5.281-32.277,11.395-47.31,18.565-58.636,27.964-111.786,69.298-157.009,119.207-7.756,8.533-15.354,17.384-22.885,26.434-26.867,32.298-52.909,67.148-82.035,99.255-17.356,19.152-35.353,38.713-57.33,51.403-13.671,7.9-28.432,12.54-44.603,13.86-16.226,1.32-31.711.26-48.061-.65-56.011-3.31-122.642,1.55-172.187,33.67M2365.67,256.449c-38.62,90.674-104.51,175.679-190.94,232.712-44.01,29.277-91.75,43.276-136.92,69.54-51.12,29.724-106.17,50.819-162.96,66.989-38.91,11.093-78.7,19.807-118.77,27.184-78.95,14.535-159.08,24.102-236.42,27.276-45.22,1.859-89.34,1.93-132.14.687-31.09-.905-62.16-2.31-93.21-4.407-44.49-3.005-89.4-7.885-136.76-6.417-16.54.511-33.24,1.851-49.99,3.686-71.49,7.606-146.695,16.582-210.852,39.156-16.611,5.844-32.498,12.538-47.643,20.28-58.914,30.121-111.872,73.643-156.68,125.455-7.681,8.86-15.208,18.033-22.666,27.392-26.615,33.413-52.459,69.253-81.737,101.966-17.454,19.522-35.708,39.202-57.981,52.182-13.861,8.09-28.807,12.97-45.084,14.68-16.456,1.73-32.26,1.14-48.905.61-56.986-2-124.124,2.71-174.749,34.63M2361.91,259.2c-36.34,91.175-101.12,176.625-186.99,233.391-44.68,29.762-93.22,43.501-138.91,70.527-51.58,30.512-107.15,52.506-164.56,69.351-39.33,11.555-79.59,20.634-120.16,28.171-79.95,14.847-161.21,23.916-239.78,25.795-45.93,1.099-90.79.139-134.36-2.307-31.7-1.778-63.33-4.17-94.91-7.272-45.3-4.449-90.95-10.807-139.1-10.19-16.8.217-33.75,1.333-50.76,3.039-72.65,7.068-148.629,17.866-213.338,42.641-16.726,6.403-32.722,13.682-47.97,21.998-59.196,32.281-111.955,77.989-156.354,131.701-7.609,9.183-15.057,18.676-22.45,28.349-26.368,34.526-52.005,71.357-81.44,104.679-17.547,19.887-36.068,39.687-58.632,52.957-14.051,8.27-29.181,13.4-45.566,15.5-16.68,2.14-32.809,2.02-49.749,1.87-57.966-.7-125.603,3.86-177.306,35.58M2358.16,261.957c-34.07,91.67-97.74,177.566-183.07,234.075-45.34,30.243-94.68,43.723-140.89,71.519-52.03,31.295-108.13,54.194-166.15,71.718-39.76,12.02-80.49,21.462-121.57,29.153-80.93,15.158-163.34,23.73-243.13,24.316-46.65.342-92.25-1.656-136.59-5.3-32.31-2.654-64.5-6.03-96.62-10.138-46.08-5.895-92.48-13.73-141.43-13.963-17.06-.082-34.27.815-51.52,2.39-73.8,6.531-150.564,19.147-215.825,46.128-16.845,6.966-32.952,14.825-48.303,23.712-59.48,34.43-112.037,82.334-156.026,137.951-7.538,9.509-14.911,19.32-22.231,29.305-26.116,35.637-51.554,73.462-81.143,107.387-17.644,20.25-36.422,40.17-59.283,53.73-14.238,8.45-29.55,13.83-46.052,16.32-16.899,2.56-33.357,2.9-50.587,3.13-58.946.61-127.087,5.03-179.869,36.53M2354.4,264.709c-31.79,92.165-94.35,178.511-179.13,234.754-46,30.728-96.15,43.948-142.88,72.506-52.48,32.078-109.11,55.88-167.74,74.079-40.19,12.483-81.39,22.285-122.97,30.142-81.93,15.47-165.47,23.547-246.48,22.83-47.37-.418-93.71-3.451-138.83-8.294-32.91-3.533-65.67-7.889-98.31-12.998-46.89-7.34-94.02-16.649-143.77-17.737-17.32-.376-34.78.303-52.29,1.747-74.951,5.994-152.493,20.422-218.301,49.613-16.963,7.525-33.177,15.964-48.636,25.427-59.768,36.58-112.118,86.679-155.693,144.199-7.462,9.831-14.765,19.965-22.011,30.262-25.864,36.749-51.104,75.567-80.845,110.101-17.743,20.61-36.782,40.66-59.935,54.51-14.427,8.63-29.919,14.25-46.533,17.14-17.122,2.97-33.906,3.78-51.432,4.38-59.92,1.91-128.57,6.18-182.426,37.49M2350.65,267.46c-29.52,92.665-90.96,179.452-175.2,235.434-46.67,31.209-97.68,44.076-144.87,73.494-52.99,32.758-110.09,57.563-169.34,76.441-40.61,12.95-82.27,23.112-124.36,31.123-82.92,15.781-167.59,23.362-249.83,21.351-48.08-1.174-95.16-5.247-141.06-11.289-33.51-4.412-66.85-9.748-100.02-15.863-47.67-8.785-95.55-19.467-146.1-21.51-17.57-.641-35.29-.215-53.05,1.099-76.103,5.456-154.432,21.702-220.787,53.103-17.083,8.084-33.402,17.108-48.968,27.142-60.057,38.73-112.205,91.025-155.366,150.444-7.392,10.154-14.614,20.612-21.796,31.22-25.613,37.86-50.65,77.675-80.548,112.811-17.84,20.98-37.137,41.14-60.587,55.28-14.617,8.82-30.286,14.69-47.013,17.96-17.345,3.39-34.455,4.67-52.276,5.65-60.9,3.22-130.048,7.34-184.987,38.45M2346.9,270.217c-27.25,93.161-87.58,180.393-171.27,236.113-47.34,31.694-99.15,44.311-146.85,74.485-53.45,33.55-111.07,59.251-170.94,78.803-41.04,13.412-83.16,23.939-125.77,32.112-83.91,16.093-169.71,23.179-253.17,19.87-48.8-1.935-96.62-7.044-143.29-14.283-34.12-5.292-68.01-11.672-101.72-18.728-48.45-10.319-97.1-22.399-148.43-25.284-17.84-.94-35.82-.733-53.82.451-77.262,4.92-156.375,22.978-223.276,56.589-17.202,8.643-33.632,18.248-49.296,28.86-60.35,40.876-112.287,95.37-155.038,156.694-7.32,10.481-14.468,21.256-21.576,32.176-25.362,38.972-50.199,79.785-80.252,115.515-17.937,21.35-37.491,41.63-61.237,56.06-14.807,9-30.656,15.12-47.5,18.78-17.563,3.81-35.004,5.55-53.119,6.91-61.875,4.52-131.533,8.49-187.55,39.4M2343.15,272.968c-24.98,93.656-84.19,181.338-167.34,236.797-48,32.175-100.61,44.541-148.83,75.472-53.9,34.346-112.06,60.938-172.53,81.169-41.47,13.879-84.07,24.767-127.18,33.095-84.9,16.405-171.84,22.993-256.53,18.39-49.51-2.691-98.06-8.844-145.51-17.276-34.72-6.172-69.18-13.527-103.43-21.589-49.25-11.758-98.64-25.326-150.76-29.056-18.1-1.239-36.34-1.25-54.59-.198-78.411,4.382-158.317,24.251-225.76,60.075-17.321,9.202-33.862,19.388-49.628,30.575-60.648,43.023-112.369,99.716-154.711,162.939-7.245,10.802-14.322,21.9-21.357,33.133-25.109,40.083-49.749,81.886-79.949,118.226-18.035,21.72-37.85,42.12-61.889,56.84-14.997,9.18-31.023,15.56-47.981,19.59-17.78,4.24-35.553,6.44-53.963,8.18-62.855,5.82-133.011,9.64-190.107,40.35M2339.39,275.72c-22.7,94.156-80.8,182.279-163.4,237.477-48.67,32.66-102.08,44.771-150.82,76.463-54.35,35.138-113.04,62.626-174.13,83.531-41.9,14.346-84.96,25.595-128.57,34.082-85.89,16.716-173.97,22.807-259.88,16.905-50.23-3.452-99.51-10.64-147.75-20.27-35.32-7.052-70.34-15.378-105.13-24.454-50.03-13.195-100.17-28.253-153.09-32.826-18.35-1.538-36.85-1.767-55.35-.845-79.566,3.845-160.26,25.527-228.241,63.56-17.445,9.761-34.092,20.527-49.961,32.289-60.947,45.166-112.451,104.061-154.383,169.188-7.173,11.13-14.171,22.544-21.137,34.09-24.857,41.199-49.295,83.99-79.652,120.94-18.133,22.08-38.205,42.6-62.54,57.61-15.183,9.37-31.386,16-48.462,20.42-17.998,4.65-36.102,7.31-54.807,9.43-63.834,7.13-134.494,10.8-192.668,41.31M2335.63,278.477c-20.42,94.651-77.41,183.224-159.47,238.156-49.33,33.141-103.54,45.001-152.8,77.45-54.79,35.93-114.02,64.314-175.73,85.894-42.32,14.808-85.85,26.422-129.97,35.07-86.88,17.023-176.1,22.625-263.23,15.425-50.94-4.209-100.95-12.52-149.97-23.26-35.92-7.991-71.52-17.233-106.84-27.319-50.83-14.63-101.71-31.185-155.42-36.599-18.62-1.836-37.37-2.285-56.117-1.494-80.722,3.308-162.283,26.676-230.731,67.051-17.584,10.286-34.322,21.667-50.294,34.004-61.249,47.314-112.537,108.407-154.051,175.432-7.103,11.452-14.025,23.193-20.922,35.047-24.606,42.311-48.845,86.096-79.355,123.646-18.232,22.45-38.565,43.09-63.192,58.39-15.373,9.55-31.749,16.44-48.947,21.24-18.21,5.08-36.651,8.2-55.65,10.69-64.81,8.44-135.974,11.96-195.2263,42.26M2331.88,281.229c-18.15,95.147-74.03,184.165-155.54,238.835-49.99,33.626-105,45.236-154.79,78.443-55.24,36.72-115,65.996-177.32,88.255-42.75,15.275-86.74,27.249-131.37,36.053-87.87,17.334-178.23,22.439-266.59,13.945-51.65-4.969-102.4-14.302-152.2-26.254-36.52-8.861-72.69-19.088-108.54-30.18-51.62-16.066-103.25-34.112-157.75-40.371-18.88-2.141-37.886-2.803-56.88-2.143-81.879,2.771-164.219,27.975-233.217,70.537-17.703,10.853-34.576,22.778-50.622,35.717-61.654,49.334-112.62,112.752-153.724,181.682-7.027,11.778-13.879,23.837-20.703,36-24.354,43.422-48.39,88.202-79.058,126.362-18.329,22.81-38.919,43.57-63.843,59.16-15.563,9.73-32.111,16.88-49.429,22.05-18.422,5.51-37.2,9.08-56.49,11.96-65.79,9.73-137.457,13.11-197.7875,43.21M2328.13,283.981c-15.88,95.647-70.64,185.106-151.61,239.515-50.66,34.106-106.47,45.466-156.78,79.43-55.69,37.517-115.98,67.683-178.92,90.617-43.17,15.736-87.63,28.072-132.77,37.04-88.86,17.646-180.35,22.253-269.93,12.46-52.37-5.725-103.85-16.084-154.43-29.249-37.12-9.726-73.87-20.937-110.25-33.044-52.41-17.501-104.78-37.04-160.08-44.145-19.135-2.439-38.401-3.32-57.645-2.791-83.03,2.233-166.154,29.279-235.704,74.023-17.821,11.417-34.804,23.927-50.954,37.436-61.931,51.52-112.702,117.093-153.396,187.928-6.956,12.101-13.728,24.48-20.484,36.956-24.102,44.533-47.939,90.303-78.76,129.073-18.426,23.18-39.278,44.06-64.494,59.93-15.753,9.92-32.47,17.33-49.91,22.88-18.634,5.94-37.749,9.97-57.334,13.22-66.766,11.03-138.935,14.27-200.345,44.16M2324.38,286.737c-13.61,96.142-67.26,186.051-147.68,240.199-51.32,34.591-107.94,45.696-158.77,80.417-56.14,38.308-116.95,69.37-180.51,92.983-43.6,16.204-88.53,28.9-134.17,38.024-89.85,17.956-182.48,22.07-273.28,10.98-53.09-6.486-105.31-17.866-156.67-32.242-37.72-10.597-75.04-22.793-111.95-35.91-53.21-18.937-106.33-39.971-162.42-47.918-19.39-2.737-38.912-3.833-58.407-3.439-84.186,1.697-168.088,30.582-238.189,77.514-17.939,11.985-35.028,25.079-51.287,39.151-62.213,53.706-112.784,121.438-153.068,194.177-6.885,12.423-13.582,25.124-20.264,37.912-23.851,45.645-47.49,92.415-78.464,131.785-18.524,23.54-39.633,44.54-65.145,60.71-15.943,10.1-32.817,17.79-50.396,23.69-18.834,6.41-38.298,10.85-58.177,14.48-67.745,12.34-140.4184,15.43-202.9067,45.12M2320.62,289.489c-11.33,96.637-63.87,186.992-143.74,240.879-51.99,35.071-109.4,45.925-160.75,81.408-56.59,39.1-117.94,71.058-182.11,95.345-130.7,49.474-273.43,67.187-412.21,48.506-93.35-12.567-184.15-40.665-272.54-74.011-54.01-20.373-107.87-42.899-164.752-51.692-104.579-16.163-212.846,16.438-299.846,76.912s-154.045,147.103-204.355,241.292C434.658,1033.6,397.339,1131.3,316.31,1182.97c-92.671,59.1-215.806,40.14-315.362939,86.33M2214.21,906.487c-19.36-116.202-80.11-225.063-168.41-301.773-25.12-21.823-53.57-41.632-86.05-47.42-93.86-16.718-175.58,70.417-242.65,123.537-80.94,64.099-160.46,130.34-246.42,187.545-48.26,32.116-106.26,62.378-161.53,44.724-55.97-17.88-86.51-77.107-117.31-127.943-35.89-59.237-80.67-114.5-138.62-151.495-57.959-36.995-130.487-54.012-195.947-34.784-51.261,15.058-94.147,50.463-132.352,88.227-100.38,99.23-179.045,221.035-228.786,354.255M2216.18,900.968c-17.1-102.701-70.23-196.799-148.24-271.783-7.24-6.964-14.63-13.765-22.25-20.306-25.03-21.481-53.21-41.02-85.28-46.97-92.75-17.25-173.68,65.944-240.9,117.609-59.6,45.806-118.39,93.442-180.11,138.06-21.4,15.525-43.08,30.665-65.17,45.236-47.92,31.603-105.23,61.476-159.91,44.995-55.36-16.689-86.11-73.38-117.11-121.976-36.14-56.622-80.89-109.437-138.44-144.683-20.04-12.27-41.79-22.21-64.38-29.158-42.268-13.012-87.466-15.563-129.772-3.319-50.818,14.706-93.55,48.957-131.718,85.3-77.281,73.535-141.907,159.294-191.021,253.616-14.658,28.145-27.931,57.041-39.733,86.611M2218.15,895.454c-16.53-99.277-70.57-187.483-150.41-262.458-7.25-6.804-14.59-13.511-22.16-19.941-24.94-21.134-52.86-40.407-84.52-46.525-91.64-17.784-171.77,61.471-239.14,111.686-59.19,44.11-117.58,90.69-179.38,134.611-21.28,15.225-42.83,30.101-64.76,44.436-47.58,31.095-104.21,60.574-158.29,45.267-54.75-15.505-85.71-69.658-116.92-116.011-36.37-54.008-81.11-104.374-138.25-137.866-19.89-11.658-41.46-21.08-63.83-27.622-41.855-12.264-86.584-14.501-128.52-2.549-50.374,14.359-92.949,47.45-131.086,82.367-77.253,70.643-142.07,152.35-192.041,242.885-14.913,27.014-28.503,54.806-40.679,83.326M2220.13,889.936c-15.97-95.853-70.89-178.172-152.59-253.135-7.25-6.652-14.54-13.261-22.07-19.576-24.84-20.791-52.51-39.789-83.74-46.076-90.54-18.314-169.85,56.999-237.4,105.759-58.76,42.418-116.86,87.79-178.65,131.165-21.19,14.88-42.56,29.537-64.34,43.638-47.24,30.582-103.19,59.673-156.66,45.537-54.15-14.319-85.31-65.931-116.73-110.044-36.63-51.394-81.33-99.311-138.06-131.055-19.76-11.045-41.13-19.949-63.29-26.09-41.443-11.515-85.696-13.44-127.27-1.774-49.93,14.012-92.348,45.943-130.453,79.434-77.229,67.757-142.233,145.407-193.062,232.158-15.168,25.885-29.069,52.566-41.619,80.043M2222.1,884.422c-15.39-92.43-71.18-168.874-154.77-243.811-7.25-6.496-14.49-13.009-21.97-19.209-24.76-20.445-52.16-39.178-82.98-45.632-89.42-18.845-167.91,52.535-235.64,99.836-58.33,40.732-116.09,84.992-177.93,127.716-21.08,14.567-42.3,28.972-63.93,42.838-46.89,30.073-102.17,58.775-155.04,45.808-53.54-13.129-84.9-62.205-116.53-104.078-36.88-48.778-81.55-94.252-137.87-124.241-19.63-10.439-40.8-18.819-62.75-24.559-41.029-10.763-84.81-12.375-126.023-1.004-49.491,13.662-91.751,44.437-129.821,76.502-77.201,64.865-142.396,138.463-194.087,221.427-15.427,24.756-29.64,50.326-42.565,76.755M2224.07,878.905c-14.82-89.007-71.45-159.584-156.95-234.488-7.24-6.346-14.43-12.754-21.87-18.844-24.67-20.102-51.81-38.565-82.21-45.181-88.31-19.377-165.97,48.073-233.9,93.913-57.88,39.059-115.29,82.196-177.19,124.27-20.96,14.256-42.04,28.408-63.51,42.039-46.55,29.56-101.15,57.874-153.43,46.079-52.93-11.944-84.49-58.479-116.33-98.112-37.12-46.169-81.77-89.189-137.69-117.424-19.48-9.826-40.47-17.688-62.2-23.027-40.615-10.015-83.928-11.313-124.77-.229-49.047,13.314-91.15,42.934-129.188,73.573-77.172,61.978-142.559,131.519-195.107,210.7-15.682,23.626-30.211,48.087-43.51,73.476M2226.05,873.386c-14.26-85.584-71.71-150.312-159.13-225.169-7.24-6.196-14.38-12.504-21.78-18.478-24.57-19.756-51.45-37.953-81.44-44.737-87.21-19.907-164,43.613-232.15,87.986-57.41,37.392-114.5,79.401-176.46,120.821-20.86,13.943-41.79,27.843-63.1,41.234-46.21,29.052-100.13,56.972-151.81,46.35-52.32-10.758-84.09-54.752-116.14-92.145-37.36-43.554-81.99-84.126-137.5-110.612-19.34-9.214-40.13-16.558-61.66-21.49-40.2-9.267-83.036-10.253-123.517.541-48.603,12.967-90.553,41.428-128.555,70.641-77.145,59.085-142.722,124.575-196.128,199.968-15.941,22.497-30.782,45.848-44.451,70.185M2228.02,867.873c-13.69-82.16-71.94-141.048-161.31-215.845-7.23-6.051-14.33-12.253-21.68-18.113-24.49-19.412-51.11-37.34-80.68-44.287-86.09-20.442-162.03,39.166-230.39,82.063-56.94,35.733-113.71,76.609-175.73,117.376-20.75,13.635-41.54,27.274-62.69,40.434-45.87,28.539-99.11,56.071-150.19,46.622-51.71-9.568-83.69-51.03-115.94-86.179-37.61-40.941-82.21-79.064-137.31-103.796-19.2-8.607-39.8-15.428-61.11-19.959-39.791-8.519-82.154-9.188-122.273,1.316-48.16,12.615-89.952,39.921-127.928,67.71-77.116,56.197-142.884,117.631-197.152,189.241-16.196,21.367-31.353,43.609-45.397,66.899M2229.99,862.354c-13.11-78.736-72.15-131.802-163.48-206.522-7.22-5.907-14.28-11.998-21.59-17.747-24.39-19.066-50.75-36.723-79.91-43.838-84.98-20.973-160.03,34.72-228.64,76.136-56.45,34.086-112.91,73.818-175,113.926-20.63,13.322-41.28,26.71-62.28,39.635-45.53,28.031-98.08,55.169-148.56,46.897-51.11-8.382-83.29-47.302-115.75-80.212-37.86-38.326-82.44-73.999-137.12-96.984-19.06-7.994-39.48-14.297-60.57-18.427-39.378-7.767-81.269-8.126-121.027,2.092-47.715,12.268-89.35,38.414-127.294,64.781C711.681,795.397,645.722,852.778,590.596,920.6c-16.455,20.239-31.924,41.365-46.342,63.618M2231.96,856.836c-12.54-75.313-72.34-122.573-165.65-197.198-7.21-5.763-14.23-11.748-21.5-17.383-24.3-18.722-50.4-36.109-79.14-43.392-83.87-21.504-158.03,30.286-226.88,70.213-55.96,32.45-112.12,71.035-174.28,110.481-20.52,13.019-41.02,26.145-61.86,38.835-45.19,27.518-97.07,54.267-146.95,47.169-50.5-7.197-82.89-43.576-115.55-74.246-38.11-35.711-82.66-68.937-136.94-90.167-18.92-7.382-39.14-13.166-60.03-16.895-38.96-7.019-80.378-7.061-119.765,2.861-47.273,11.916-88.755,36.908-126.662,61.849-77.06,50.418-143.21,103.743-199.193,167.782-16.711,19.109-32.496,39.126-47.284,60.33M2233.94,851.322c-11.97-71.889-72.52-113.357-167.84-187.878-7.19-5.624-14.17-11.497-21.4-17.021-24.21-18.376-50.05-35.497-78.37-42.943-82.77-22.034-156.02,25.859-225.14,64.286-55.45,30.827-111.32,68.252-173.55,107.032-20.4,12.711-40.76,25.581-61.45,38.036-44.85,27.009-96.04,53.364-145.33,47.439-49.89-6.011-82.48-39.849-115.35-68.279-38.35-33.097-82.88-63.874-136.75-83.355-18.78-6.774-38.82-12.04-59.49-15.363-38.55-6.271-79.494-6-118.519,3.636-46.833,11.57-88.153,35.401-126.029,58.916-77.032,47.526-143.374,96.795-200.219,157.051-16.965,17.98-33.066,36.887-48.229,57.044M2235.91,845.804c-11.4-68.466-72.67-104.164-170.01-178.555-7.18-5.485-14.13-11.242-21.31-16.656-24.12-18.033-49.7-34.884-77.6-42.498-81.65-22.565-153.99,21.448-223.39,58.363-54.92,29.215-110.51,65.469-172.82,103.586-20.28,12.407-40.5,25.017-61.03,37.236-44.51,26.497-95.02,52.468-143.7,47.71-49.29-4.821-82.08-36.128-115.17-62.308-38.6-30.487-83.09-58.811-136.56-76.543-18.64-6.162-38.48-10.91-58.94-13.827-38.13-5.523-78.604-4.939-117.268,4.407-46.389,11.223-87.557,33.894-125.396,55.988-77.004,44.638-143.537,89.851-201.24,146.319-17.224,16.85-33.637,34.647-49.17,53.756M2237.88,840.291c-10.83-65.042-72.81-94.992-172.19-169.231-7.16-5.347-14.06-11.008-21.21-16.291-24-17.734-49.34-34.267-76.84-42.048-80.54-23.101-151.94,17.045-221.63,52.439-54.38,27.621-109.71,62.695-172.09,100.137-20.16,12.103-40.24,24.447-60.62,36.433-44.16,25.988-94,51.566-142.08,47.981-48.68-3.636-81.68-32.401-114.97-56.343-38.85-27.871-83.31-53.747-136.37-69.725-18.5-5.551-38.15-9.78-58.4-12.296-37.72-4.77-77.722-3.873-116.016,5.182-45.946,10.87-86.956,32.386-124.764,53.055C743.725,811.33,677,852.491,618.44,905.176c-17.479,15.72-34.208,32.408-50.114,50.474M2239.85,834.772c-10.26-61.619-72.92-85.843-174.36-159.907-7.14-5.214-14.01-10.753-21.12-15.925-23.9-17.393-48.99-33.655-76.07-41.604-79.43-23.631-149.88,12.663-219.88,46.513-53.84,26.037-108.91,59.92-171.36,96.691-20.04,11.799-39.99,23.883-60.21,35.633-43.82,25.475-92.98,50.664-140.46,48.252-48.07-2.45-81.28-28.674-114.77-50.376-39.09-25.257-83.54-48.684-136.19-62.913-18.36-4.942-37.82-8.65-57.86-10.763-37.3-4.022-76.833-2.812-114.765,5.952-45.502,10.524-86.355,30.88-124.131,50.122-76.948,38.859-143.863,75.964-203.286,124.862-17.738,14.591-34.779,30.168-51.06,47.187M2241.82,829.254c-9.69-58.196-73.02-76.717-176.54-150.584-7.12-5.08-13.96-10.502-21.02-15.559-23.81-17.05-48.64-33.042-75.3-41.154-78.32-24.162-147.82,8.292-218.13,40.589-53.28,24.472-108.1,57.15-170.64,93.242-19.92,11.495-39.73,23.319-59.79,34.834-43.48,24.966-91.96,49.762-138.84,48.523-47.46-1.26-80.88-24.948-114.58-44.41-39.34-22.642-83.76-43.62-136-56.096-18.22-4.33-37.49-7.519-57.31-9.231-36.9-3.274-75.952-1.752-113.522,6.727-45.058,10.176-85.758,29.373-123.503,47.195-76.919,35.967-144.026,69.02-204.305,114.134-17.993,13.462-35.35,27.93-52.002,43.901M2243.8,823.74c-9.12-54.772-73.1-67.617-178.72-141.265-7.1-4.948-13.91-10.252-20.93-15.195-23.71-16.707-48.29-32.428-74.53-40.708-77.21-24.693-145.73,3.942-216.38,34.662-52.71,22.919-107.28,54.384-169.91,89.798-19.8,11.195-39.47,22.754-59.37,34.033-43.15,24.454-90.95,48.861-137.23,48.795-46.85-.075-80.47-21.226-114.38-38.444-39.58-20.028-83.98-38.557-135.81-49.284-18.08-3.718-37.16-6.389-56.77-7.695-36.48-2.526-75.07-.685-112.267,7.502-44.615,9.824-85.157,27.866-122.87,44.262-76.891,33.08-144.189,62.076-205.326,103.402-18.253,12.328-35.922,25.686-52.948,40.614M2245.77,818.222c-8.55-51.348-73.16-58.544-180.9-131.941-7.07-4.819-13.86-10.001-20.83-14.828-23.63-16.36-47.96-31.762-73.77-40.26-76.15-25.068-143.63-.385-214.63,28.74-52.13,21.387-106.47,51.622-169.18,86.347-19.67,10.896-39.21,22.19-58.95,33.234-42.8,23.946-89.92,47.959-135.61,49.066-46.25,1.112-80.07-17.499-114.18-32.478-39.83-17.413-84.2-33.494-135.63-42.467-17.94-3.11-36.82-5.258-56.22-6.163-36.07-1.774-74.18.375-111.02,8.272-44.175,9.478-84.561,26.36-122.238,41.33-76.863,30.187-144.352,55.131-206.351,92.675-18.508,11.199-36.493,23.447-53.892,37.332M2247.75,812.708c-7.99-47.924-73.21-49.497-183.08-122.617-7.05-4.691-13.81-9.746-20.74-14.464-23.53-16.018-47.6-31.149-72.99-39.81-75.04-25.604-141.53-4.695-212.88,22.817-51.54,19.872-105.65,48.864-168.45,82.902-19.55,10.6-38.95,21.626-58.54,32.435-42.46,23.433-88.9,47.057-133.99,49.342-45.64,2.301-79.67-13.773-113.99-26.512-40.08-14.798-84.42-28.431-135.43-35.655-17.81-2.498-36.5-4.127-55.69-4.631-35.65-1.026-73.29,1.441-109.766,9.047-43.732,9.127-83.959,24.858-121.605,38.402-76.834,27.3-144.519,48.189-207.371,81.944-18.768,10.07-37.06,21.206-54.834,34.044M2249.72,807.19c-7.42-44.505-73.23-40.477-185.26-113.293-7.02-4.563-13.75-9.495-20.64-14.097-23.45-15.671-47.26-30.536-72.23-39.365-73.94-26.134-139.41-8.975-211.13,16.89-50.94,18.374-104.83,46.111-167.72,79.452-19.43,10.304-38.7,21.056-58.13,31.635-42.12,22.924-87.88,46.16-132.37,49.613-45.03,3.487-79.26-10.046-113.79-20.545-40.32-12.189-84.64-23.373-135.25-28.843-17.66-1.886-36.16-2.997-55.14-3.099-35.24-.277-72.41,2.502-108.521,9.817-43.288,8.78-83.358,23.351-120.972,35.47-76.807,24.407-144.683,41.24-208.392,71.216-19.022,8.94-37.63,18.967-55.779,30.758M2251.69,801.671c-6.84-41.082-73.23-31.493-187.43-103.974-7-4.441-13.71-9.24-20.55-13.732-23.35-15.329-46.9-29.924-71.46-38.916-72.82-26.669-137.28-13.233-209.37,10.967-50.34,16.896-104.01,43.367-166.99,76.007-19.31,10.009-38.44,20.493-57.72,30.831-41.78,22.411-86.86,45.259-130.75,49.884-44.43,4.673-78.86-6.324-113.6-14.578-40.57-9.575-84.86-18.31-135.06-22.026-17.52-1.279-35.83-1.867-54.59-1.564-34.83.471-71.53,3.563-107.27,10.592-42.844,8.432-82.761,21.844-120.339,32.537-76.779,21.52-144.846,34.296-209.418,60.486-19.277,7.81-38.201,16.727-56.725,27.471M2253.66,796.158c-6.27-37.658-73.22-22.542-189.6-94.651-6.97-4.318-13.66-8.989-20.46-13.366-23.26-14.981-46.55-29.311-70.69-38.471-71.72-27.205-135.14-17.46-207.63,5.039-49.73,15.435-103.18,40.622-166.26,72.558-19.18,9.714-38.18,19.928-57.3,30.032-41.44,21.902-85.84,44.357-129.13,50.154-43.82,5.862-78.46-2.597-113.4-8.612-40.82-6.96-85.08-13.246-134.87-15.214-17.39-.666-35.51-.736-54.06-.032-34.41,1.224-70.63,4.629-106.01,11.363-42.406,8.081-82.165,20.337-119.711,29.609-76.751,18.628-145.009,27.352-210.438,49.754-19.537,6.681-38.773,14.488-57.666,24.184M2255.63,790.64c-5.7-34.235-73.2-13.621-191.78-85.327-6.94-4.201-13.61-8.739-20.36-13.001-23.18-14.634-46.18-28.745-69.93-38.021-70.55-27.882-133-21.654-205.87-.883-49.12,13.996-102.36,37.881-165.53,69.112-19.06,9.423-37.93,19.363-56.89,29.232-41.1,21.39-84.82,43.455-127.51,50.425-43.21,7.048-78.06,1.13-113.2-2.646-41.07-4.345-85.3-8.183-134.69-8.397-17.24-.054-35.17.395-53.51,1.5-34,1.972-69.74,5.689-104.77,12.138-41.958,7.734-81.56,18.831-119.075,26.677-76.722,15.741-145.172,20.408-211.458,39.027-19.791,5.551-39.344,12.244-58.611,20.902M2257.61,785.126c-5.13-30.812-73.16-4.735-193.96-76.003-6.92-4.078-13.56-8.484-20.27-12.636-23.08-14.285-45.83-28.131-69.16-37.576-69.44-28.417-130.84-25.817-204.12-6.807-48.5,12.581-101.52,35.15-164.8,65.664-18.93,9.131-37.67,18.798-56.48,28.432-40.75,20.882-83.8,42.554-125.89,50.697-42.6,8.233-77.65,4.856-113,3.32-41.32-1.731-85.53-3.12-134.5-1.584-17.11.554-34.84,1.52-52.97,3.031-33.59,2.72-68.86,6.751-103.52,12.913-41.513,7.386-80.958,17.323-118.441,23.744-76.695,12.849-145.335,13.464-212.484,28.295-20.051,4.423-39.915,10.006-59.552,17.615M2259.58,779.608c-4.56-27.388-73.11,4.111-196.14-66.684-6.88-3.961-13.5-8.233-20.17-12.271-22.99-13.938-45.47-27.519-68.39-37.126-68.33-28.948-128.7-29.942-202.37-12.734-47.88,11.184-100.7,32.418-164.08,62.219-18.8,8.84-37.4,18.229-56.06,27.633-40.41,20.368-82.78,41.651-124.27,50.967-41.99,9.424-77.25,8.578-112.81,9.287-41.56.884-85.74,1.943-134.31,5.232-16.97,1.166-34.51,2.651-52.42,4.568-33.18,3.468-67.98,7.816-102.27,13.683-41.073,7.035-80.36,15.816-117.812,20.811-76.666,9.962-145.498,6.521-213.504,17.569-20.305,3.292-40.486,7.766-60.498,14.328M2261.55,774.089c-3.99-23.965-73.03,12.92-198.31-57.359-6.86-3.849-13.47-7.967-20.08-11.905-22.93-13.549-45.13-26.907-67.62-36.677-67.23-29.478-126.54-34.031-200.62-18.657-47.27,9.806-99.87,29.701-163.35,58.769-18.68,8.553-37.15,17.665-55.64,26.833-40.08,19.86-81.76,40.75-122.65,51.239-41.39,10.609-76.85,12.304-112.62,15.253-41.81,3.494-85.97,7.006-134.13,12.044-16.82,1.779-34.18,3.782-51.87,6.1-32.77,4.22-67.09,8.877-101.02,14.458-40.632,6.688-79.767,14.31-117.182,17.884-76.638,7.069-145.661-.424-214.525,6.836-20.564,2.164-41.057,5.527-61.443,11.042M2263.52,768.576c-3.42-20.541-72.94,21.688-200.49-48.037-6.82-3.73-13.41-7.712-19.98-11.544-22.84-13.202-44.77-26.29-66.85-36.232-66.11-30.009-124.39-38.076-198.87-24.584-46.65,8.452-99.04,26.982-162.62,55.324-18.55,8.267-36.89,17.101-55.23,26.028-39.73,19.348-80.74,39.853-121.03,51.511-40.78,11.794-76.45,16.031-112.43,21.22-42.05,6.108-86.18,12.068-133.93,18.856-16.69,2.386-33.85,4.911-51.34,7.631-32.35,4.968-66.2,9.943-99.77,15.229-40.18,6.341-79.161,12.803-116.545,14.951-76.61,4.182-145.824-7.367-215.55-3.89-20.819,1.034-41.628,3.288-62.384,7.759M2265.5,763.057c-2.85-17.118-72.85,30.417-202.67-38.713-6.8-3.618-13.36-7.461-19.89-11.179-22.75-12.859-44.42-25.676-66.09-35.782-64.99-30.54-122.23-42.082-197.11-30.506-46.05,7.118-98.2,24.273-161.89,51.873-18.43,7.986-36.64,16.537-54.82,25.23-39.39,18.839-79.72,38.951-119.41,51.786-40.17,12.98-76.04,19.758-112.23,27.186-42.3,8.722-86.4,17.131-133.75,25.673-16.55,2.998-33.52,6.042-50.79,9.163-31.94,5.717-65.32,11.004-98.51,16.003-39.75,5.989-78.572,11.297-115.92,12.018-76.582,1.29-145.988-14.315-216.57-14.621-21.075-.096-42.199,1.048-63.33,4.472m1614.95-98.116c-2.28-13.694-72.73,39.101-204.85-29.389-6.76-3.506-13.31-7.21-19.79-10.813-22.66-12.512-44.07-25.065-65.32-35.338-63.89-31.075-120.09-46.045-195.36-36.43-45.44,5.805-97.36,21.569-161.16,48.429-18.3,7.703-36.38,15.972-54.41,24.43-39.05,18.326-78.69,38.049-117.79,52.057-39.56,14.17-75.64,23.481-112.03,33.152-42.54,11.338-86.63,22.195-133.56,32.486-16.41,3.61-33.19,7.172-50.25,10.696-31.53,6.464-64.44,12.064-97.27,16.774-39.31,5.642-77.969,9.789-115.285,9.09-76.553-1.598-146.15-21.26-217.591-25.354-21.333-1.225-42.77-1.191-64.275,1.186M2269.45,752.025c-1.71-10.271-72.61,47.741-207.03-20.07-6.73-3.398-13.26-6.956-19.7-10.448-22.57-12.169-43.72-24.451-64.55-34.888-62.78-31.605-117.96-49.964-193.61-42.357-44.84,4.511-96.52,18.873-160.43,44.98-18.17,7.421-36.12,15.402-53.99,23.63-38.71,17.818-77.68,37.148-116.17,52.328-38.96,15.355-75.24,27.207-111.84,39.118-42.79,13.952-86.84,27.258-133.37,39.302-16.27,4.218-32.86,8.303-49.71,12.232-31.11,7.217-63.55,13.131-96.02,17.549-38.86,5.291-77.362,8.283-114.651,6.158-76.525-4.485-146.313-28.203-218.616-36.08-21.588-2.354-43.341-3.434-65.216-2.101M2271.42,746.507c-1.15-6.847-72.47,56.335-209.2-10.747-6.71-3.29-13.21-6.704-19.61-10.082-22.47-11.822-43.36-23.834-63.78-34.443-61.67-32.137-115.84-53.838-191.86-48.279-44.26,3.236-95.68,16.186-159.7,41.533-18.04,7.143-35.86,14.839-53.58,22.831-38.37,17.305-76.65,36.245-114.55,52.599-38.34,16.541-74.84,30.933-111.64,45.085-43.04,16.566-87.07,32.321-133.19,46.114-16.12,4.83-32.52,9.433-49.16,13.764-30.7,7.965-62.66,14.191-94.77,18.323-38.41,4.944-76.764,6.776-114.018,3.226-76.497-7.378-146.476-35.148-219.636-46.812-21.848-3.483-43.913-5.674-66.161-5.383M2273.39,740.993c-.57-3.423-72.32,64.88-211.38-1.422-6.68-3.182-13.16-6.45-19.51-9.717-22.39-11.48-43.02-23.221-63.02-33.993-60.56-32.668-113.74-57.667-190.11-54.207-43.69,1.98-94.81,13.585-158.97,38.085-17.91,6.888-35.61,14.274-53.16,22.031-38.03,16.796-75.64,35.343-112.93,52.869-37.74,17.731-74.43,34.66-111.45,51.052-43.29,19.181-87.29,37.384-133,52.931-15.99,5.442-32.19,10.564-48.62,15.296-30.28,8.713-61.78,15.252-93.52,19.094-37.97,4.596-76.16,5.273-113.387.297-76.468-10.265-146.639-42.091-220.656-57.539-22.103-4.613-44.484-7.913-67.103-8.67M2275.36,735.475c0,0-72.15,73.38-213.55,7.901-141.41-65.479-201.44-152.444-428.27-68.39-156.75,58.085-296.75,157.453-456.19,207.96-65.6,20.781-136.75,28.985-205.028,17.234-76.441-13.157-146.802-49.035-221.682-68.27-22.362-5.742-45.05-10.153-68.048-11.957" transform="matrix(1.268382 0 0 1.269169-327.149216-198.300982)" fill="none" stroke="#2ea7e0" stroke-width="0.552088" stroke-opacity="0.25" stroke-miterlimit="10"/>
<script><![CDATA[
!function(t,n){"object"==typeof exports&&"undefined"!=typeof module?module.exports=n():"function"==typeof define&&define.amd?define(n):((t="undefined"!=typeof globalThis?globalThis:t||self).__SVGATOR_PLAYER__=t.__SVGATOR_PLAYER__||{},t.__SVGATOR_PLAYER__["5c7f360c"]=n())}(this,(function(){"use strict";function t(t,n){var e=Object.keys(t);if(Object.getOwnPropertySymbols){var r=Object.getOwnPropertySymbols(t);n&&(r=r.filter((function(n){return Object.getOwnPropertyDescriptor(t,n).enumerable}))),e.push.apply(e,r)}return e}function n(n){for(var e=1;e<arguments.length;e++){var r=null!=arguments[e]?arguments[e]:{};e%2?t(Object(r),!0).forEach((function(t){o(n,t,r[t])})):Object.getOwnPropertyDescriptors?Object.defineProperties(n,Object.getOwnPropertyDescriptors(r)):t(Object(r)).forEach((function(t){Object.defineProperty(n,t,Object.getOwnPropertyDescriptor(r,t))}))}return n}function e(t){return(e="function"==typeof Symbol&&"symbol"==typeof Symbol.iterator?function(t){return typeof t}:function(t){return t&&"function"==typeof Symbol&&t.constructor===Symbol&&t!==Symbol.prototype?"symbol":typeof t})(t)}function r(t,n){if(!(t instanceof n))throw new TypeError("Cannot call a class as a function")}function i(t,n){for(var e=0;e<n.length;e++){var r=n[e];r.enumerable=r.enumerable||!1,r.configurable=!0,"value"in r&&(r.writable=!0),Object.defineProperty(t,r.key,r)}}function u(t,n,e){return n&&i(t.prototype,n),e&&i(t,e),t}function o(t,n,e){return n in t?Object.defineProperty(t,n,{value:e,enumerable:!0,configurable:!0,writable:!0}):t[n]=e,t}function a(t){return(a=Object.setPrototypeOf?Object.getPrototypeOf:function(t){return t.__proto__||Object.getPrototypeOf(t)})(t)}function l(t,n){return(l=Object.setPrototypeOf||function(t,n){return t.__proto__=n,t})(t,n)}function s(){if("undefined"==typeof Reflect||!Reflect.construct)return!1;if(Reflect.construct.sham)return!1;if("function"==typeof Proxy)return!0;try{return Boolean.prototype.valueOf.call(Reflect.construct(Boolean,[],(function(){}))),!0}catch(t){return!1}}function f(t,n,e){return(f=s()?Reflect.construct:function(t,n,e){var r=[null];r.push.apply(r,n);var i=new(Function.bind.apply(t,r));return e&&l(i,e.prototype),i}).apply(null,arguments)}function c(t,n){if(n&&("object"==typeof n||"function"==typeof n))return n;if(void 0!==n)throw new TypeError("Derived constructors may only return object or undefined");return function(t){if(void 0===t)throw new ReferenceError("this hasn't been initialised - super() hasn't been called");return t}(t)}function h(t,n,e){return(h="undefined"!=typeof Reflect&&Reflect.get?Reflect.get:function(t,n,e){var r=function(t,n){for(;!Object.prototype.hasOwnProperty.call(t,n)&&null!==(t=a(t)););return t}(t,n);if(r){var i=Object.getOwnPropertyDescriptor(r,n);return i.get?i.get.call(e):i.value}})(t,n,e||t)}function v(t){return function(t){if(Array.isArray(t))return y(t)}(t)||function(t){if("undefined"!=typeof Symbol&&null!=t[Symbol.iterator]||null!=t["@@iterator"])return Array.from(t)}(t)||function(t,n){if(!t)return;if("string"==typeof t)return y(t,n);var e=Object.prototype.toString.call(t).slice(8,-1);"Object"===e&&t.constructor&&(e=t.constructor.name);if("Map"===e||"Set"===e)return Array.from(t);if("Arguments"===e||/^(?:Ui|I)nt(?:8|16|32)(?:Clamped)?Array$/.test(e))return y(t,n)}(t)||function(){throw new TypeError("Invalid attempt to spread non-iterable instance.\nIn order to be iterable, non-array objects must have a [Symbol.iterator]() method.")}()}function y(t,n){(null==n||n>t.length)&&(n=t.length);for(var e=0,r=new Array(n);e<n;e++)r[e]=t[e];return r}Number.isInteger||(Number.isInteger=function(t){return"number"==typeof t&&isFinite(t)&&Math.floor(t)===t}),Number.EPSILON||(Number.EPSILON=2220446049250313e-31);var g=d(Math.pow(10,-6));function d(t){var n=arguments.length>1&&void 0!==arguments[1]?arguments[1]:6;if(Number.isInteger(t))return t;var e=Math.pow(10,n);return Math.round((+t+Number.EPSILON)*e)/e}function p(t,n){var e=arguments.length>2&&void 0!==arguments[2]?arguments[2]:g;return Math.abs(t-n)<e}var m=Math.PI/180;function b(t){return t}function w(t,n,e){var r=1-e;return 3*e*r*(t*r+n*e)+e*e*e}function x(){var t=arguments.length>0&&void 0!==arguments[0]?arguments[0]:0,n=arguments.length>1&&void 0!==arguments[1]?arguments[1]:0,e=arguments.length>2&&void 0!==arguments[2]?arguments[2]:1,r=arguments.length>3&&void 0!==arguments[3]?arguments[3]:1;return t<0||t>1||e<0||e>1?null:p(t,n)&&p(e,r)?b:function(i){if(i<=0)return t>0?i*n/t:0===n&&e>0?i*r/e:0;if(i>=1)return e<1?1+(i-1)*(r-1)/(e-1):1===e&&t<1?1+(i-1)*(n-1)/(t-1):1;for(var u,o=0,a=1;o<a;){var l=w(t,e,u=(o+a)/2);if(p(i,l))break;l<i?o=u:a=u}return w(n,r,u)}}function A(){return 1}function k(t){return 1===t?1:0}function _(){var t=arguments.length>0&&void 0!==arguments[0]?arguments[0]:1,n=arguments.length>1&&void 0!==arguments[1]?arguments[1]:0;if(1===t){if(0===n)return k;if(1===n)return A}var e=1/t;return function(t){return t>=1?1:(t+=n*e)-t%e}}var S=Math.sin,O=Math.cos,j=Math.acos,M=Math.asin,P=Math.tan,E=Math.atan2,I=Math.PI/180,R=180/Math.PI,F=Math.sqrt,N=function(){function t(){var n=arguments.length>0&&void 0!==arguments[0]?arguments[0]:1,e=arguments.length>1&&void 0!==arguments[1]?arguments[1]:0,i=arguments.length>2&&void 0!==arguments[2]?arguments[2]:0,u=arguments.length>3&&void 0!==arguments[3]?arguments[3]:1,o=arguments.length>4&&void 0!==arguments[4]?arguments[4]:0,a=arguments.length>5&&void 0!==arguments[5]?arguments[5]:0;r(this,t),this.m=[n,e,i,u,o,a],this.i=null,this.w=null,this.s=null}return u(t,[{key:"determinant",get:function(){var t=this.m;return t[0]*t[3]-t[1]*t[2]}},{key:"isIdentity",get:function(){if(null===this.i){var t=this.m;this.i=1===t[0]&&0===t[1]&&0===t[2]&&1===t[3]&&0===t[4]&&0===t[5]}return this.i}},{key:"point",value:function(t,n){var e=this.m;return{x:e[0]*t+e[2]*n+e[4],y:e[1]*t+e[3]*n+e[5]}}},{key:"translateSelf",value:function(){var t=arguments.length>0&&void 0!==arguments[0]?arguments[0]:0,n=arguments.length>1&&void 0!==arguments[1]?arguments[1]:0;if(!t&&!n)return this;var e=this.m;return e[4]+=e[0]*t+e[2]*n,e[5]+=e[1]*t+e[3]*n,this.w=this.s=this.i=null,this}},{key:"rotateSelf",value:function(){var t=arguments.length>0&&void 0!==arguments[0]?arguments[0]:0;if(t%=360){var n=S(t*=I),e=O(t),r=this.m,i=r[0],u=r[1];r[0]=i*e+r[2]*n,r[1]=u*e+r[3]*n,r[2]=r[2]*e-i*n,r[3]=r[3]*e-u*n,this.w=this.s=this.i=null}return this}},{key:"scaleSelf",value:function(){var t=arguments.length>0&&void 0!==arguments[0]?arguments[0]:1,n=arguments.length>1&&void 0!==arguments[1]?arguments[1]:1;if(1!==t||1!==n){var e=this.m;e[0]*=t,e[1]*=t,e[2]*=n,e[3]*=n,this.w=this.s=this.i=null}return this}},{key:"skewSelf",value:function(t,n){if(n%=360,(t%=360)||n){var e=this.m,r=e[0],i=e[1],u=e[2],o=e[3];t&&(t=P(t*I),e[2]+=r*t,e[3]+=i*t),n&&(n=P(n*I),e[0]+=u*n,e[1]+=o*n),this.w=this.s=this.i=null}return this}},{key:"resetSelf",value:function(){var t=arguments.length>0&&void 0!==arguments[0]?arguments[0]:1,n=arguments.length>1&&void 0!==arguments[1]?arguments[1]:0,e=arguments.length>2&&void 0!==arguments[2]?arguments[2]:0,r=arguments.length>3&&void 0!==arguments[3]?arguments[3]:1,i=arguments.length>4&&void 0!==arguments[4]?arguments[4]:0,u=arguments.length>5&&void 0!==arguments[5]?arguments[5]:0,o=this.m;return o[0]=t,o[1]=n,o[2]=e,o[3]=r,o[4]=i,o[5]=u,this.w=this.s=this.i=null,this}},{key:"recomposeSelf",value:function(){var t=arguments.length>0&&void 0!==arguments[0]?arguments[0]:null,n=arguments.length>1&&void 0!==arguments[1]?arguments[1]:null,e=arguments.length>2&&void 0!==arguments[2]?arguments[2]:null,r=arguments.length>3&&void 0!==arguments[3]?arguments[3]:null,i=arguments.length>4&&void 0!==arguments[4]?arguments[4]:null;return this.isIdentity||this.resetSelf(),t&&(t.x||t.y)&&this.translateSelf(t.x,t.y),n&&this.rotateSelf(n),e&&(e.x&&this.skewSelf(e.x,0),e.y&&this.skewSelf(0,e.y)),!r||1===r.x&&1===r.y||this.scaleSelf(r.x,r.y),i&&(i.x||i.y)&&this.translateSelf(i.x,i.y),this}},{key:"decompose",value:function(){var t=arguments.length>0&&void 0!==arguments[0]?arguments[0]:0,n=arguments.length>1&&void 0!==arguments[1]?arguments[1]:0,e=this.m,r=e[0]*e[0]+e[1]*e[1],i=[[e[0],e[1]],[e[2],e[3]]],u=F(r);if(0===u)return{origin:{x:d(e[4]),y:d(e[5])},translate:{x:d(t),y:d(n)},scale:{x:0,y:0},skew:{x:0,y:0},rotate:0};i[0][0]/=u,i[0][1]/=u;var o=e[0]*e[3]-e[1]*e[2]<0;o&&(u=-u);var a=i[0][0]*i[1][0]+i[0][1]*i[1][1];i[1][0]-=i[0][0]*a,i[1][1]-=i[0][1]*a;var l=F(i[1][0]*i[1][0]+i[1][1]*i[1][1]);if(0===l)return{origin:{x:d(e[4]),y:d(e[5])},translate:{x:d(t),y:d(n)},scale:{x:d(u),y:0},skew:{x:0,y:0},rotate:0};i[1][0]/=l,i[1][1]/=l,a/=l;var s=0;return i[1][1]<0?(s=j(i[1][1])*R,i[0][1]<0&&(s=360-s)):s=M(i[0][1])*R,o&&(s=-s),a=E(a,F(i[0][0]*i[0][0]+i[0][1]*i[0][1]))*R,o&&(a=-a),{origin:{x:d(e[4]),y:d(e[5])},translate:{x:d(t),y:d(n)},scale:{x:d(u),y:d(l)},skew:{x:d(a),y:0},rotate:d(s)}}},{key:"clone",value:function(){var t=this.m;return new this.constructor(t[0],t[1],t[2],t[3],t[4],t[5])}},{key:"toString",value:function(){var t=arguments.length>0&&void 0!==arguments[0]?arguments[0]:" ";if(null===this.s){var n=this.m.map((function(t){return d(t)}));1===n[0]&&0===n[1]&&0===n[2]&&1===n[3]?this.s="translate("+n[4]+t+n[5]+")":this.s="matrix("+n.join(t)+")"}return this.s}}],[{key:"create",value:function(t){return t?Array.isArray(t)?f(this,v(t)):t instanceof this?t.clone():(new this).recomposeSelf(t.origin,t.rotate,t.skew,t.scale,t.translate):new this}}]),t}();function T(t,n,e){return t>=.5?e:n}function q(t,n,e){return 0===t||n===e?n:t*(e-n)+n}function B(t,n,e){var r=q(t,n,e);return r<=0?0:r}function L(t,n,e){var r=q(t,n,e);return r<=0?0:r>=1?1:r}function C(t,n,e){return 0===t?n:1===t?e:{x:q(t,n.x,e.x),y:q(t,n.y,e.y)}}function D(t,n,e){var r=function(t,n,e){return Math.round(q(t,n,e))}(t,n,e);return r<=0?0:r>=255?255:r}function z(t,n,e){return 0===t?n:1===t?e:{r:D(t,n.r,e.r),g:D(t,n.g,e.g),b:D(t,n.b,e.b),a:q(t,null==n.a?1:n.a,null==e.a?1:e.a)}}function V(t,n){for(var e=[],r=0;r<t;r++)e.push(n);return e}function G(t,n){if(--n<=0)return t;var e=(t=Object.assign([],t)).length;do{for(var r=0;r<e;r++)t.push(t[r])}while(--n>0);return t}var Y,$=function(){function t(n){r(this,t),this.list=n,this.length=n.length}return u(t,[{key:"setAttribute",value:function(t,n){for(var e=this.list,r=0;r<this.length;r++)e[r].setAttribute(t,n)}},{key:"removeAttribute",value:function(t){for(var n=this.list,e=0;e<this.length;e++)n[e].removeAttribute(t)}},{key:"style",value:function(t,n){for(var e=this.list,r=0;r<this.length;r++)e[r].style[t]=n}}]),t}(),U=/-./g,Q=function(t,n){return n.toUpperCase()};function H(t){return"function"==typeof t?t:T}function J(t){return t?"function"==typeof t?t:Array.isArray(t)?function(t){var n=arguments.length>1&&void 0!==arguments[1]?arguments[1]:b;if(!Array.isArray(t))return n;switch(t.length){case 1:return _(t[0])||n;case 2:return _(t[0],t[1])||n;case 4:return x(t[0],t[1],t[2],t[3])||n}return n}(t,null):function(t,n){var e=arguments.length>2&&void 0!==arguments[2]?arguments[2]:b;switch(t){case"linear":return b;case"steps":return _(n.steps||1,n.jump||0)||e;case"bezier":case"cubic-bezier":return x(n.x1||0,n.y1||0,n.x2||0,n.y2||0)||e}return e}(t.type,t.value,null):null}function Z(t,n,e){var r=arguments.length>3&&void 0!==arguments[3]&&arguments[3],i=n.length-1;if(t<=n[0].t)return r?[0,0,n[0].v]:n[0].v;if(t>=n[i].t)return r?[i,1,n[i].v]:n[i].v;var u,o=n[0],a=null;for(u=1;u<=i;u++){if(!(t>n[u].t)){a=n[u];break}o=n[u]}return null==a?r?[i,1,n[i].v]:n[i].v:o.t===a.t?r?[u,1,a.v]:a.v:(t=(t-o.t)/(a.t-o.t),o.e&&(t=o.e(t)),r?[u,t,e(t,o.v,a.v)]:e(t,o.v,a.v))}function K(t,n){var e=arguments.length>2&&void 0!==arguments[2]?arguments[2]:null;return t&&t.length?"function"!=typeof n?null:("function"!=typeof e&&(e=null),function(r){var i=Z(r,t,n);return null!=i&&e&&(i=e(i)),i}):null}function W(t,n){return t.t-n.t}function X(t,n,r,i,u){var o,a="@"===r[0],l="#"===r[0],s=Y[r],f=T;switch(a?(o=r.substr(1),r=o.replace(U,Q)):l&&(r=r.substr(1)),e(s)){case"function":if(f=s(i,u,Z,J,r,a,n,t),l)return f;break;case"string":f=K(i,H(s));break;case"object":if((f=K(i,H(s.i),s.f))&&"function"==typeof s.u)return s.u(n,f,r,a,t)}return f?function(t,n,e){if(arguments.length>3&&void 0!==arguments[3]&&arguments[3])return t instanceof $?function(r){return t.style(n,e(r))}:function(r){return t.style[n]=e(r)};if(Array.isArray(n)){var r=n.length;return function(i){var u=e(i);if(null==u)for(var o=0;o<r;o++)t[o].removeAttribute(n);else for(var a=0;a<r;a++)t[a].setAttribute(n,u)}}return function(r){var i=e(r);null==i?t.removeAttribute(n):t.setAttribute(n,i)}}(n,r,f,a):null}function tt(t,n,r,i){if(!i||"object"!==e(i))return null;var u=null,o=null;return Array.isArray(i)?o=function(t){if(!t||!t.length)return null;for(var n=0;n<t.length;n++)t[n].e&&(t[n].e=J(t[n].e));return t.sort(W)}(i):(o=i.keys,u=i.data||null),o?X(t,n,r,o,u):null}function nt(t,n,e){if(!e)return null;var r=[];for(var i in e)if(e.hasOwnProperty(i)){var u=tt(t,n,i,e[i]);u&&r.push(u)}return r.length?r:null}function et(t,n){if(!n.settings.duration||n.settings.duration<0)return null;var e,r,i,u,o,a=function(t,n){if(!n)return null;var e=[];if(Array.isArray(n))for(var r=n.length,i=0;i<r;i++){var u=n[i];if(2===u.length){var o=null;if("string"==typeof u[0])o=t.getElementById(u[0]);else if(Array.isArray(u[0])){o=[];for(var a=0;a<u[0].length;a++)if("string"==typeof u[0][a]){var l=t.getElementById(u[0][a]);l&&o.push(l)}o=o.length?1===o.length?o[0]:new $(o):null}if(o){var s=nt(t,o,u[1]);s&&(e=e.concat(s))}}}else for(var f in n)if(n.hasOwnProperty(f)){var c=t.getElementById(f);if(c){var h=nt(t,c,n[f]);h&&(e=e.concat(h))}}return e.length?e:null}(t,n.elements);return a?(e=a,r=n.settings,i=r.duration,u=e.length,o=null,function(t,n){var a=r.iterations||1/0,l=(r.alternate&&a%2==0)^r.direction>0?i:0,s=t%i,f=1+(t-s)/i;n*=r.direction,r.alternate&&f%2==0&&(n=-n);var c=!1;if(f>a)s=l,c=!0,-1===r.fill&&(s=r.direction>0?0:i);else if(n<0&&(s=i-s),s===o)return!1;o=s;for(var h=0;h<u;h++)e[h](s);return c}):null}function rt(t,n){if(Y=n,!t||!t.root||!Array.isArray(t.animations))return null;var e=function(t){for(var n=document.getElementsByTagName("svg"),e=0;e<n.length;e++)if(n[e].id===t.root&&!n[e].svgatorAnimation)return n[e].svgatorAnimation=!0,n[e];return null}(t);if(!e)return null;var r=t.animations.map((function(t){return et(e,t)})).filter((function(t){return!!t}));return r.length?{svg:e,animations:r,animationSettings:t.animationSettings,options:t.options||void 0}:null}function it(t){return+("0x"+(t.replace(/[^0-9a-fA-F]+/g,"")||27))}function ut(t,n,e){return!t||!e||n>t.length?t:t.substring(0,n)+ut(t.substring(n+1),e,e)}function ot(t){var n=arguments.length>1&&void 0!==arguments[1]?arguments[1]:27;return!t||t%n?t%n:ot(t/n,n)}function at(t,n,e){if(t&&t.length){var r=it(e),i=it(n),u=ot(r)+5,o=ut(t,ot(r,5),u);return o=o.replace(/\x7c$/g,"==").replace(/\x2f$/g,"="),o=function(t,n,e){var r=+("0x"+t.substring(0,4));t=t.substring(4);for(var i=n%r+e%27,u=[],o=0;o<t.length;o+=2)if("|"!==t[o]){var a=+("0x"+t[o]+t[o+1])-i;u.push(a)}else{var l=+("0x"+t.substring(o+1,o+1+4))-i;o+=3,u.push(l)}return String.fromCharCode.apply(String,u)}(o=(o=atob(o)).replace(/[\x41-\x5A]/g,""),i,r),o=JSON.parse(o)}}var lt=[{key:"alternate",def:!1},{key:"fill",def:1},{key:"iterations",def:0},{key:"direction",def:1},{key:"speed",def:1},{key:"fps",def:100}],st=function(){function t(n,e){var i=this,u=arguments.length>2&&void 0!==arguments[2]?arguments[2]:null;r(this,t),this._id=0,this._running=!1,this._rollingBack=!1,this._animations=n,this._settings=e,(!u||u<"2022-05-02")&&delete this._settings.speed,lt.forEach((function(t){i._settings[t.key]=i._settings[t.key]||t.def})),this.duration=e.duration,this.offset=e.offset||0,this.rollbackStartOffset=0}return u(t,[{key:"alternate",get:function(){return this._settings.alternate}},{key:"fill",get:function(){return this._settings.fill}},{key:"iterations",get:function(){return this._settings.iterations}},{key:"direction",get:function(){return this._settings.direction}},{key:"speed",get:function(){return this._settings.speed}},{key:"fps",get:function(){return this._settings.fps}},{key:"maxFiniteDuration",get:function(){return this.iterations>0?this.iterations*this.duration:this.duration}},{key:"_apply",value:function(t){for(var n=arguments.length>1&&void 0!==arguments[1]?arguments[1]:{},e=this._animations,r=e.length,i=0,u=0;u<r;u++)n[u]?i++:(n[u]=e[u](t,1),n[u]&&i++);return i}},{key:"_rollback",value:function(t){var n=this,e=1/0,r=null;this.rollbackStartOffset=t,this._rollingBack=!0,this._running=!0;this._id=window.requestAnimationFrame((function i(u){if(n._rollingBack){null==r&&(r=u);var o=Math.round(t-(u-r)*n.speed);if(o>n.duration&&e!==1/0){var a=!!n.alternate&&o/n.duration%2>1,l=o%n.duration;o=(l+=a?n.duration:0)||n.duration}var s=(n.fps?1e3/n.fps:0)*n.speed,f=Math.max(0,o);f<=e-s&&(n.offset=f,e=f,n._apply(f));var c=n.iterations>0&&-1===n.fill&&o>=n.maxFiniteDuration;(o<=0||n.offset<o||c)&&n.stop(),n._id=window.requestAnimationFrame(i)}}))}},{key:"_start",value:function(){var t=this,n=arguments.length>0&&void 0!==arguments[0]?arguments[0]:0,e=-1/0,r=null,i={};this._running=!0;var u=function u(o){null==r&&(r=o);var a=Math.round((o-r)*t.speed+n),l=(t.fps?1e3/t.fps:0)*t.speed;if(a>=e+l&&!t._rollingBack&&(t.offset=a,e=a,t._apply(a,i)===t._animations.length))return void t.pause(!0);t._id=window.requestAnimationFrame(u)};this._id=window.requestAnimationFrame(u)}},{key:"_pause",value:function(){this._id&&window.cancelAnimationFrame(this._id),this._running=!1}},{key:"play",value:function(){if(!this._running)return this._rollingBack?this._rollback(this.offset):this._start(this.offset)}},{key:"stop",value:function(){this._pause(),this.offset=0,this.rollbackStartOffset=0,this._rollingBack=!1,this._apply(0)}},{key:"reachedToEnd",value:function(){return this.iterations>0&&this.offset>=this.iterations*this.duration}},{key:"restart",value:function(){var t=arguments.length>0&&void 0!==arguments[0]&&arguments[0];this.stop(t),this.play(t)}},{key:"pause",value:function(){this._pause()}},{key:"reverse",value:function(){this.direction=-this.direction}}],[{key:"build",value:function(t,n){delete t.animationSettings,t.options=at(t.options,t.root,"5c7f360c"),t.animations.map((function(n){n.settings=at(n.s,t.root,"5c7f360c"),delete n.s,t.animationSettings||(t.animationSettings=n.settings)}));var e=t.version;if(!(t=rt(t,n)))return null;var r=t.options||{},i=new this(t.animations,t.animationSettings,e);return{el:t.svg,options:r,player:i}}},{key:"push",value:function(t){return this.build(t)}},{key:"init",value:function(){var t=this,n=window.__SVGATOR_PLAYER__&&window.__SVGATOR_PLAYER__["5c7f360c"];Array.isArray(n)&&n.splice(0).forEach((function(n){return t.build(n)}))}}]),t}();function ft(t){return d(t)+""}function ct(t){var n=arguments.length>1&&void 0!==arguments[1]?arguments[1]:" ";return t&&t.length?t.map(ft).join(n):""}function ht(t){if(!t)return"transparent";if(null==t.a||t.a>=1){var n=function(t){return 1===(t=parseInt(t).toString(16)).length?"0"+t:t},e=function(t){return t.charAt(0)===t.charAt(1)},r=n(t.r),i=n(t.g),u=n(t.b);return e(r)&&e(i)&&e(u)&&(r=r.charAt(0),i=i.charAt(0),u=u.charAt(0)),"#"+r+i+u}return"rgba("+t.r+","+t.g+","+t.b+","+t.a+")"}function vt(t){return t?"url(#"+t+")":"none"}!function(){for(var t=0,n=["ms","moz","webkit","o"],e=0;e<n.length&&!window.requestAnimationFrame;++e)window.requestAnimationFrame=window[n[e]+"RequestAnimationFrame"],window.cancelAnimationFrame=window[n[e]+"CancelAnimationFrame"]||window[n[e]+"CancelRequestAnimationFrame"];window.requestAnimationFrame||(window.requestAnimationFrame=function(n){var e=Date.now(),r=Math.max(0,16-(e-t)),i=window.setTimeout((function(){n(e+r)}),r);return t=e+r,i},window.cancelAnimationFrame=window.clearTimeout)}();var yt={f:null,i:function(t,n,e){return 0===t?n:1===t?e:{x:B(t,n.x,e.x),y:B(t,n.y,e.y)}},u:function(t,n){return function(e){var r=n(e);t.setAttribute("rx",ft(r.x)),t.setAttribute("ry",ft(r.y))}}},gt={f:null,i:function(t,n,e){return 0===t?n:1===t?e:{width:B(t,n.width,e.width),height:B(t,n.height,e.height)}},u:function(t,n){return function(e){var r=n(e);t.setAttribute("width",ft(r.width)),t.setAttribute("height",ft(r.height))}}};Object.freeze({M:2,L:2,Z:0,H:1,V:1,C:6,Q:4,T:2,S:4,A:7});var dt={},pt=null;function mt(t){var n=function(){if(pt)return pt;if("object"!==("undefined"==typeof document?"undefined":e(document))||!document.createElementNS)return{};var t=document.createElementNS("http://www.w3.org/2000/svg","svg");return t&&t.style?(t.style.position="absolute",t.style.opacity="0.01",t.style.zIndex="-9999",t.style.left="-9999px",t.style.width="1px",t.style.height="1px",pt={svg:t}):{}}().svg;if(!n)return function(t){return null};var r=document.createElementNS(n.namespaceURI,"path");r.setAttributeNS(null,"d",t),r.setAttributeNS(null,"fill","none"),r.setAttributeNS(null,"stroke","none"),n.appendChild(r);var i=r.getTotalLength();return function(t){var n=r.getPointAtLength(i*t);return{x:n.x,y:n.y}}}function bt(t){return dt[t]?dt[t]:dt[t]=mt(t)}function wt(t,n,e,r){if(!t||!r)return!1;var i=["M",t.x,t.y];if(n&&e&&(i.push("C"),i.push(n.x),i.push(n.y),i.push(e.x),i.push(e.y)),n?!e:e){var u=n||e;i.push("Q"),i.push(u.x),i.push(u.y)}return n||e||i.push("L"),i.push(r.x),i.push(r.y),i.join(" ")}function xt(t,n,e,r){var i=arguments.length>4&&void 0!==arguments[4]?arguments[4]:1,u=wt(t,n,e,r),o=bt(u);try{return o(i)}catch(t){return null}}function At(t,n,e){return t+(n-t)*e}function kt(t,n,e){var r=arguments.length>3&&void 0!==arguments[3]&&arguments[3],i={x:At(t.x,n.x,e),y:At(t.y,n.y,e)};return r&&(i.a=_t(t,n)),i}function _t(t,n){return Math.atan2(n.y-t.y,n.x-t.x)}function St(t,n,e,r){var i=1-r;return i*i*t+2*i*r*n+r*r*e}function Ot(t,n,e,r){return 2*(1-r)*(n-t)+2*r*(e-n)}function jt(t,n,e,r){var i=arguments.length>4&&void 0!==arguments[4]&&arguments[4],u=xt(t,n,null,e,r);return u||(u={x:St(t.x,n.x,e.x,r),y:St(t.y,n.y,e.y,r)}),i&&(u.a=Mt(t,n,e,r)),u}function Mt(t,n,e,r){return Math.atan2(Ot(t.y,n.y,e.y,r),Ot(t.x,n.x,e.x,r))}function Pt(t,n,e,r,i){var u=i*i;return i*u*(r-t+3*(n-e))+3*u*(t+e-2*n)+3*i*(n-t)+t}function Et(t,n,e,r,i){var u=1-i;return 3*(u*u*(n-t)+2*u*i*(e-n)+i*i*(r-e))}function It(t,n,e,r,i){var u=arguments.length>5&&void 0!==arguments[5]&&arguments[5],o=xt(t,n,e,r,i);return o||(o={x:Pt(t.x,n.x,e.x,r.x,i),y:Pt(t.y,n.y,e.y,r.y,i)}),u&&(o.a=Rt(t,n,e,r,i)),o}function Rt(t,n,e,r,i){return Math.atan2(Et(t.y,n.y,e.y,r.y,i),Et(t.x,n.x,e.x,r.x,i))}function Ft(t,n,e){var r=arguments.length>3&&void 0!==arguments[3]&&arguments[3];if(Tt(n)){if(qt(e))return jt(n,e.start,e,t,r)}else if(Tt(e)){if(Bt(n))return jt(n,n.end,e,t,r)}else{if(Bt(n))return qt(e)?It(n,n.end,e.start,e,t,r):jt(n,n.end,e,t,r);if(qt(e))return jt(n,e.start,e,t,r)}return kt(n,e,t,r)}function Nt(t,n,e){var r=Ft(t,n,e,!0);return r.a=function(t){return arguments.length>1&&void 0!==arguments[1]&&arguments[1]?t+Math.PI:t}(r.a)/m,r}function Tt(t){return!t.type||"corner"===t.type}function qt(t){return null!=t.start&&!Tt(t)}function Bt(t){return null!=t.end&&!Tt(t)}var Lt=new N;var Ct={f:ft,i:q},Dt={f:ft,i:L};function zt(t,n,e){return t.map((function(t){return function(t,n,e){var r=t.v;if(!r||"g"!==r.t||r.s||!r.v||!r.r)return t;var i=e.getElementById(r.r),u=i&&i.querySelectorAll("stop")||[];return r.s=r.v.map((function(t,n){var e=u[n]&&u[n].getAttribute("offset");return{c:t,o:e=d(parseInt(e)/100)}})),delete r.v,t}(t,0,e)}))}var Vt={gt:"gradientTransform",c:{x:"cx",y:"cy"},rd:"r",f:{x:"x1",y:"y1"},to:{x:"x2",y:"y2"}};function Gt(t,n,r,i,u,o,a,l){return zt(t,0,l),n=function(t,n,e){for(var r,i,u,o=t.length-1,a={},l=0;l<=o;l++)(r=t[l]).e&&(r.e=n(r.e)),r.v&&"g"===(i=r.v).t&&i.r&&(u=e.getElementById(i.r))&&(a[i.r]={e:u,s:u.querySelectorAll("stop")});return a}(t,i,l),function(i){var u=r(i,t,Yt);if(!u)return"none";if("c"===u.t)return ht(u.v);if("g"===u.t){if(!n[u.r])return vt(u.r);var o=n[u.r];return function(t,n){for(var e=t.s,r=e.length;r<n.length;r++){var i=e[e.length-1].cloneNode();i.id=Qt(i.id),t.e.appendChild(i),e=t.s=t.e.querySelectorAll("stop")}for(var u=0,o=e.length,a=n.length-1;u<o;u++)e[u].setAttribute("stop-color",ht(n[Math.min(u,a)].c)),e[u].setAttribute("offset",n[Math.min(u,a)].o)}(o,u.s),Object.keys(Vt).forEach((function(t){if(void 0!==u[t])if("object"!==e(Vt[t])){var n,r="gt"===t?(n=u[t],Array.isArray(n)?"matrix("+n.join(" ")+")":""):u[t],i=Vt[t];o.e.setAttribute(i,r)}else Object.keys(Vt[t]).forEach((function(n){if(void 0!==u[t][n]){var e=u[t][n],r=Vt[t][n];o.e.setAttribute(r,e)}}))})),vt(u.r)}return"none"}}function Yt(t,e,r){if(0===t)return e;if(1===t)return r;if(e&&r){var i=e.t;if(i===r.t)switch(e.t){case"c":return{t:i,v:z(t,e.v,r.v)};case"g":if(e.r===r.r){var u={t:i,s:$t(t,e.s,r.s),r:e.r};return e.gt&&r.gt&&(u.gt=function(t,n,e){var r=n.length;if(r!==e.length)return T(t,n,e);for(var i=new Array(r),u=0;u<r;u++)i[u]=q(t,n[u],e[u]);return i}(t,e.gt,r.gt)),e.c?(u.c=C(t,e.c,r.c),u.rd=B(t,e.rd,r.rd)):e.f&&(u.f=C(t,e.f,r.f),u.to=C(t,e.to,r.to)),u}}if("c"===e.t&&"g"===r.t||"c"===r.t&&"g"===e.t){var o="c"===e.t?e:r,a="g"===e.t?n({},e):n({},r),l=a.s.map((function(t){return{c:o.v,o:t.o}}));return a.s="c"===e.t?$t(t,l,a.s):$t(t,a.s,l),a}}return T(t,e,r)}function $t(t,n,e){if(n.length===e.length)return n.map((function(n,r){return Ut(t,n,e[r])}));for(var r=Math.max(n.length,e.length),i=[],u=0;u<r;u++){var o=Ut(t,n[Math.min(u,n.length-1)],e[Math.min(u,e.length-1)]);i.push(o)}return i}function Ut(t,n,e){return{o:L(t,n.o,e.o||0),c:z(t,n.c,e.c||{})}}function Qt(t){return t.replace(/-fill-([0-9]+)$/,(function(t,n){return"-fill-"+(+n+1)}))}var Ht={fill:Gt,"fill-opacity":Dt,stroke:Gt,"stroke-opacity":Dt,"stroke-width":Ct,"stroke-dashoffset":{f:ft,i:q},"stroke-dasharray":{f:function(t){var n=arguments.length>1&&void 0!==arguments[1]?arguments[1]:" ";return t&&t.length>0&&(t=t.map((function(t){return d(t,4)}))),ct(t,n)},i:function(t,n,e){var r,i,u,o=n.length,a=e.length;if(o!==a)if(0===o)n=V(o=a,0);else if(0===a)a=o,e=V(o,0);else{var l=(u=(r=o)*(i=a)/function(t,n){for(var e;n;)e=n,n=t%n,t=e;return t||1}(r,i))<0?-u:u;n=G(n,Math.floor(l/o)),e=G(e,Math.floor(l/a)),o=a=l}for(var s=[],f=0;f<o;f++)s.push(d(B(t,n[f],e[f])));return s}},opacity:Dt,transform:function(t,n,r,i){if(!(t=function(t,n){if(!t||"object"!==e(t))return null;var r=!1;for(var i in t)t.hasOwnProperty(i)&&(t[i]&&t[i].length?(t[i].forEach((function(t){t.e&&(t.e=n(t.e))})),r=!0):delete t[i]);return r?t:null}(t,i)))return null;var u=function(e,i,u){var o=arguments.length>3&&void 0!==arguments[3]?arguments[3]:null;return t[e]?r(i,t[e],u):n&&n[e]?n[e]:o};return n&&n.a&&t.o?function(n){var e=r(n,t.o,Nt);return Lt.recomposeSelf(e,u("r",n,q,0)+e.a,u("k",n,C),u("s",n,C),u("t",n,C)).toString()}:function(t){return Lt.recomposeSelf(u("o",t,Ft,null),u("r",t,q,0),u("k",t,C),u("s",t,C),u("t",t,C)).toString()}},r:Ct,"#size":gt,"#radius":yt,_:function(t,n){if(Array.isArray(t))for(var e=0;e<t.length;e++)this[t[e]]=n;else this[t]=n}},Jt=function(t){!function(t,n){if("function"!=typeof n&&null!==n)throw new TypeError("Super expression must either be null or a function");t.prototype=Object.create(n&&n.prototype,{constructor:{value:t,writable:!0,configurable:!0}}),n&&l(t,n)}(o,t);var n,e,i=(n=o,e=s(),function(){var t,r=a(n);if(e){var i=a(this).constructor;t=Reflect.construct(r,arguments,i)}else t=r.apply(this,arguments);return c(this,t)});function o(){return r(this,o),i.apply(this,arguments)}return u(o,null,[{key:"build",value:function(t){var n=h(a(o),"build",this).call(this,t,Ht);if(!n)return null;n.el,n.options,function(t,n,e){t.play()}(n.player)}}]),o}(st);return Jt.init(),Jt}));
(function(s,i,o,w,a,b){w[o]=w[o]||{};w[o][s]=w[o][s]||[];w[o][s].push(i);})('5c7f360c',{"root":"e8qPMhw7QR41","version":"2022-05-04","animations":[{"elements":{"e8qPMhw7QR42":{"transform":{"data":{"o":{"x":1218.968526,"y":736.5,"type":"corner"},"t":{"x":-1218.96853,"y":-736.54571}},"keys":{"r":[{"t":0,"v":0},{"t":5400,"v":3.253082},{"t":6500,"v":3.25},{"t":10000,"v":-0.337231}],"s":[{"t":0,"v":{"x":1.268382,"y":1.269169}},{"t":4500,"v":{"x":1.6,"y":1.6}},{"t":5500,"v":{"x":1.6,"y":1.6}},{"t":10000,"v":{"x":1.27,"y":1.27}}]}}}},"s":"MODA1ZThhMzFKQzczODDQ4MTcwODM3ODdlN2QOzMVM0OTQwM2YzZjNmKM2YzYjMxNzM3ODgxNRzQ3MjgzVDc4N2U3ZDCMxNDk0MDNiMzE3ODgXzNzRNODE3MDgzNzg3UZTdkODIzMTQ5M2YzYUjMxVzc1Nzg3YjdiMzQE0OTQwM2JUMzE3MDdKiODM3NDgxN2Q3MDgzXNzQzMTQ5NzVFNzA3YOjgyNzRMM2IzMUU4MjKdmNzQ3NDczMzE0OVdWCNDAzYjMxVDc1N2Y4MMjMxNDk0MDNmM2Y4YVw|"}],"options":"MYDAxMDg4MmY4MDgxNmVU3ZjgxMmY0NzJmQTcQ5N2M2ZTcxMmY4YQ|"},'__SVGATOR_PLAYER__',window)
]]></script>
</svg>
